<?xml version="1.0" encoding="UTF-8"?><svg id="uuid-c4fb1631-a36c-4587-8685-4be80b7e7e9f" xmlns="http://www.w3.org/2000/svg" viewBox="0 0 700 212.38"><path d="m80.17,196.35c-8.97,0-17.63-1.03-26.01-3.09-8.38-2.06-15.87-4.99-22.48-8.82l1.98-9.26V29.27l-17.63-1.32c0-1.17.33-2.06.99-2.64.66-.59,1.95-1.1,3.86-1.54,2.65-.58,7.97-1.47,15.98-2.64,8.01-1.17,15.76-2.2,23.25-3.09v89.05c3.67-7.79,8.67-13.85,14.99-18.19,6.32-4.33,13.3-6.5,20.94-6.5s14.58,2.2,20.39,6.61c5.8,4.41,10.25,10.58,13.34,18.51,3.09,7.94,4.63,17.12,4.63,27.55,0,12.78-2.24,23.77-6.72,32.95-4.48,9.19-10.84,16.2-19.07,21.05-8.23,4.85-17.71,7.27-28.43,7.27Zm5.73-104.7c-5.15,0-10.03,2.2-14.66,6.61-4.63,4.41-8.34,10.36-11.13,17.85v69.65c5.88,4.26,12.56,6.39,20.06,6.39,9.26,0,16.01-4.15,20.28-12.45,4.26-8.3,6.39-21.42,6.39-39.34,0-32.47-6.98-48.71-20.94-48.71Z"/><path d="m227.92,172.54c0,3.53.62,5.95,1.87,7.27,1.25,1.32,3.56,1.98,6.94,1.98,1.47,0,3.31-.26,5.51-.77,2.2-.51,4.11-1.14,5.73-1.87.14.3.25.59.33.88.07.3.11.59.11.88,0,.74-.55,1.58-1.65,2.54-1.1.96-3.12,2.39-6.06,4.3-8.23,5.29-15.21,7.94-20.94,7.94-8.67,0-14.11-5.29-16.31-15.87-7.93,11.02-17.93,16.53-29.98,16.53-8.38,0-15.25-2.46-20.61-7.38-5.37-4.92-8.04-11.13-8.04-18.63,0-8.52,4.41-15.24,13.22-20.17,8.82-4.92,23.58-8.78,44.3-11.57v-20.28c0-8.08-.37-14.33-1.1-18.74-.74-4.41-2.09-7.6-4.08-9.59-1.98-1.98-4.89-2.98-8.71-2.98-6.17,0-10.54,2.5-13.11,7.49-2.57,5-3.86,13.59-3.86,25.79h-5.73c-4.56,0-8.12-1.03-10.69-3.09-2.57-2.06-3.86-4.85-3.86-8.38,0-4.55,2.24-8.93,6.72-13.11,4.48-4.19,10.1-7.46,16.86-9.81,6.76-2.35,13.81-3.53,21.16-3.53,10.87,0,18.92,2.79,24.14,8.38,5.21,5.59,7.82,14.18,7.82,25.79v55.98Zm-40.34,11.24c2.79,0,5.36-.62,7.71-1.87,2.35-1.25,4.85-3.27,7.49-6.06-.3-2.94-.44-5.36-.44-7.27v-26.23c-11.76,1.91-19.95,4.52-24.58,7.82-4.63,3.31-6.94,8.19-6.94,14.66,0,5.59,1.54,10.14,4.63,13.67,3.09,3.53,7.13,5.29,12.12,5.29Z"/><path d="m294.3,187.97l17.19,1.98c1.32.15,1.98.59,1.98,1.32,0,.88-.37,1.69-1.1,2.42h-59.51l1.1-3.75,13.89-1.98v-93.9l-17.63-1.32c0-1.17.29-2.02.88-2.54.59-.51,1.91-1.06,3.97-1.65,6.02-1.47,18.66-3.31,37.91-5.51.88,8.08,1.32,16.09,1.32,24.03v5.51c2.2-5.58,5.1-10.76,8.71-15.54,3.6-4.77,7.35-8.41,11.24-10.91,3.89-2.5,7.68-3.75,11.35-3.75s6.39,1.03,8.6,3.09c2.2,2.06,3.31,4.7,3.31,7.94-.15,2.5-.77,4.78-1.87,6.83-1.1,2.06-2.24,3.9-3.42,5.51-5.15-3.23-10.29-4.85-15.43-4.85-9.26,0-16.75,5.88-22.48,17.63v69.43Z"/><path d="m389.32,187.97l17.19,1.98c1.32.15,1.98.59,1.98,1.32,0,.88-.37,1.69-1.1,2.42h-59.51l1.1-3.75,13.89-1.98v-93.9l-17.63-1.32c0-1.17.29-2.02.88-2.54.59-.51,1.91-1.06,3.97-1.65,6.02-1.47,18.66-3.31,37.91-5.51.88,8.08,1.32,16.09,1.32,24.03v5.51c2.2-5.58,5.1-10.76,8.71-15.54,3.6-4.77,7.35-8.41,11.24-10.91,3.89-2.5,7.68-3.75,11.35-3.75s6.39,1.03,8.6,3.09c2.2,2.06,3.31,4.7,3.31,7.94-.15,2.5-.77,4.78-1.87,6.83-1.1,2.06-2.24,3.9-3.42,5.51-5.15-3.23-10.29-4.85-15.43-4.85-9.26,0-16.75,5.88-22.48,17.63v69.43Z"/><path d="m488.2,196.35c-10.88,0-20.32-2.24-28.32-6.72-8.01-4.48-14.07-10.76-18.18-18.85-4.12-8.08-6.17-17.56-6.17-28.43,0-11.75,2.24-22.26,6.72-31.52,4.48-9.26,10.65-16.31,18.51-21.16,7.86-4.85,16.93-7.27,27.22-7.27,12.2,0,21.82,3.49,28.88,10.47,7.05,6.98,10.58,16.5,10.58,28.54,0,3.67-.3,6.61-.88,8.82h-63.7v6.39c0,33.8,11.39,50.7,34.16,50.7,11.75,0,20.94-2.42,27.55-7.27.14.3.25.59.33.88.07.3.11.59.11.88,0,2.35-1.91,4.7-5.73,7.05-3.68,2.2-8.27,4.01-13.78,5.4-5.51,1.4-11.28,2.09-17.3,2.09Zm-2.65-109.77c-6.47,0-11.61,3.38-15.43,10.14-3.82,6.76-6.1,16.39-6.83,28.87h37.91v-3.97c0-13.22-1.25-22.37-3.75-27.44-2.5-5.07-6.47-7.6-11.9-7.6Z"/><path d="m683.97,183.12c0,2.06-1.72,4.15-5.18,6.28-3.45,2.14-7.53,3.83-12.22,5.08-4.72,1.24-9.26,1.87-13.67,1.87-8.38,0-14.73-2.39-19.08-7.16-4.33-4.77-6.49-11.72-6.49-20.83v-78.26h-52.97v78.26c0,6.76.99,11.46,2.98,14.11,1.98,2.65,5.32,3.97,10.02,3.97,2.79,0,5.81-.44,9.04-1.32,3.23-.88,5.8-1.99,7.71-3.31.15.15.25.33.33.55.07.23.11.48.11.77,0,2.06-1.72,4.15-5.17,6.28-3.46,2.14-7.53,3.83-12.24,5.08-4.7,1.24-9.26,1.87-13.67,1.87-8.38,0-14.73-2.39-19.06-7.16-4.34-4.77-6.51-11.72-6.51-20.83v-78.26h-15.22l1.11-3.53c8.86-.24,15.59-1.54,18.29-4.85l14.55-22.92c1.18-1.9,2.32-3.19,3.42-3.85,1.11-.67,2.54-1,4.3-1v31.09l31.15-.33c10.4-.3,18.63-2.59,23.69-7.81l16.86-26.56c1.18-1.91,2.31-3.19,3.42-3.86,1.1-.65,2.54-.99,4.3-.99v39.56l26.45-.44c1.16,0,1.76.44,1.76,1.32,0,1.18-.81,2.56-2.43,4.18h-25.78v78.26c0,6.76.99,11.46,2.97,14.11,1.99,2.65,5.33,3.97,10.03,3.97,2.79,0,5.8-.44,9.04-1.32,3.22-.88,5.8-1.99,7.71-3.31.15.15.25.33.33.55.07.23.11.48.11.77Z"/><path d="m201.7,138.4c-2.55.41-4.93.86-7.16,1.35,2.5-.4,5.1-.79,7.8-1.15v-.31l-.64.11Z"/><path d="m201.7,138.4c-2.55.41-4.93.86-7.16,1.35,2.5-.4,5.1-.79,7.8-1.15v-.31l-.64.11Z"/><path d="m201.7,138.4c-2.55.41-4.93.86-7.16,1.35,2.5-.4,5.1-.79,7.8-1.15v-.31l-.64.11Zm0,0c-2.55.41-4.93.86-7.16,1.35,2.5-.4,5.1-.79,7.8-1.15v-.31l-.64.11Zm0,0c-2.55.41-4.93.86-7.16,1.35,2.5-.4,5.1-.79,7.8-1.15v-.31l-.64.11Zm0,0c-2.55.41-4.93.86-7.16,1.35,2.5-.4,5.1-.79,7.8-1.15v-.31l-.64.11Zm0,0c-2.55.41-4.93.86-7.16,1.35,2.5-.4,5.1-.79,7.8-1.15v-.31l-.64.11Zm0,0c-2.55.41-4.93.86-7.16,1.35,2.5-.4,5.1-.79,7.8-1.15v-.31l-.64.11Zm0,0c-2.55.41-4.93.86-7.16,1.35,2.5-.4,5.1-.79,7.8-1.15v-.31l-.64.11Zm0,0c-2.55.41-4.93.86-7.16,1.35,2.5-.4,5.1-.79,7.8-1.15v-.31l-.64.11Zm0,0c-2.55.41-4.93.86-7.16,1.35,2.5-.4,5.1-.79,7.8-1.15v-.31l-.64.11Zm0,0c-2.55.41-4.93.86-7.16,1.35,2.5-.4,5.1-.79,7.8-1.15v-.31l-.64.11Zm0,0c-2.55.41-4.93.86-7.16,1.35,2.5-.4,5.1-.79,7.8-1.15v-.31l-.64.11Zm0,0c-2.55.41-4.93.86-7.16,1.35,2.5-.4,5.1-.79,7.8-1.15v-.31l-.64.11Zm493.7,40.58l-.28-.87c-.69-1.83-1.74-3.45-3.1-4.81l-7.09-7.09-8.22,5.69c-.37.25-1.51.91-4.09,1.62-2.16.59-4.13.9-5.85.9-.19,0-.36,0-.51-.01-.24-1.15-.47-3.05-.47-6.04v-66.23h18.76l3.5-3.51c3.95-3.94,5.96-8.22,5.96-12.69,0-7.48-6.05-13.35-13.79-13.35l-14.43.24v-39.35h-12.02c-3.97,0-7.49.91-10.5,2.71-2.79,1.7-5.22,4.25-7.4,7.76l-16,25.21c-1.95,1.54-6.04,3.29-14.56,3.54l-18.93.21v-30.97h-12.02c-3.97,0-7.49.92-10.5,2.73-2.77,1.66-5.2,4.19-7.39,7.73l-13.35,21.04c-1.2.36-4.02.98-9.64,1.12l-8.58.24-2.23,7.11c-9.03-7.65-20.68-11.53-34.69-11.53-12.5,0-23.79,3.05-33.53,9.07-3.82,2.35-7.35,5.13-10.54,8.34-1.02-4.26-3.21-8.03-6.49-11.1-4.44-4.13-10.23-6.31-16.79-6.31-6.01,0-12.01,1.9-17.85,5.64-1.08.69-2.15,1.46-3.21,2.27l-.92-8.54-12.02,1.36c-19.84,2.27-32.73,4.15-39.4,5.78l-.44.11c-1.14.33-2.15.65-3.09,1.02-.41-.45-.84-.89-1.31-1.34-4.44-4.13-10.23-6.31-16.79-6.31-6.01,0-12.01,1.9-17.85,5.64-1.08.69-2.15,1.46-3.21,2.27l-.92-8.54-12.02,1.36c-19.84,2.27-32.73,4.15-39.4,5.78l-.44.11c-3.97,1.14-6.53,2.38-8.59,4.18-2.27,1.99-4.98,5.62-4.98,11.57v7.92c-1.76-7.29-4.89-13.36-9.32-18.11-7.56-8.08-18.64-12.18-32.92-12.18-8.66,0-17.11,1.42-25.1,4.19-8.35,2.9-15.46,7.07-21.13,12.38-4.77,4.45-7.94,9.28-9.47,14.45-3.86-9.18-9.43-16.56-16.55-21.98-7.91-6.01-17.22-9.06-27.67-9.06-8.58,0-16.6,2.1-23.9,6.21V4.52l-13.43,1.58c-7.27.85-15.22,1.9-23.6,3.13-8.19,1.2-13.44,2.08-16.44,2.73h-.04l-.44.11c-3.99.92-6.89,2.27-9.12,4.26-3.26,2.89-5.05,7.03-5.05,11.64v11.15l17.63,1.32v133.49l-1.71,8-1.84,8.55,7.57,4.4c7.56,4.37,16.18,7.75,25.62,10.07,9.26,2.28,18.97,3.43,28.88,3.43,12.86,0,24.47-3.01,34.53-8.92,7.85-4.62,14.37-10.86,19.48-18.58,1.78,6.47,5.32,12.16,10.55,16.97,7.64,7,17.3,10.54,28.75,10.54,9.98,0,19.01-2.85,26.88-8.46,4.97,5.06,11.73,7.8,19.41,7.8,5.5,0,11.37-1.46,17.75-4.45l-.72,2.46h80.55l3.53-3.53c2.98-2.98,4.62-6.85,4.62-10.91,0-5.7-3.97-12.3-12.66-13.28l-6.51-.75v-55.76c4.82-8.56,9.04-8.56,10.46-8.56,2.86,0,5.82.99,9.03,3.01l9.51,5.97,6.61-9.08c1.54-2.12,2.98-4.45,4.27-6.91.19-.33.35-.67.51-1l4.13.31v72.32l-11.23,1.59-2.16,7.41-1.11,3.75-4.53,15.42h80.55l3.53-3.53c2.98-2.98,4.62-6.85,4.62-10.91,0-5.7-3.97-12.3-12.66-13.28l-6.51-.75v-55.76c4.82-8.56,9.04-8.56,10.46-8.56,2.86,0,5.82.99,9.03,3.01l5.5,3.46c-1.9,7.17-2.85,14.85-2.85,22.95,0,12.76,2.51,24.15,7.48,33.89,5.18,10.21,12.93,18.23,23.03,23.89,9.78,5.46,21.28,8.24,34.19,8.24,6.99,0,13.8-.83,20.25-2.46,6.6-1.67,12.32-3.93,17.01-6.75l.12-.07c9.47-5.82,11.46-12.62,11.46-17.3,0-1.19-.15-2.43-.44-3.69l-.13-.52-.03-.04c-.27-.96-.63-1.9-1.07-2.81l-6.32-12.9-11.6,8.5c-4.48,3.29-11.35,4.96-20.44,4.96-6.25,0-20.56,0-22.02-33.05h60.81l.08-.31v26.42c0,12.17,3.25,21.89,9.63,28.92,6.69,7.36,16.1,11.09,27.96,11.09,5.41,0,11.03-.76,16.73-2.27,5.84-1.54,11.05-3.71,15.48-6.47,9-5.53,10.89-12.04,10.89-16.51,0-1.4-.2-2.79-.59-4.14l-.28-.87c-.69-1.82-1.72-3.43-3.1-4.82l-7.09-7.08-8.19,5.68c-.48.32-1.66.96-4.1,1.63-2.16.59-4.13.9-5.86.9-.19,0-.35,0-.51-.01-.21-1.08-.47-2.98-.47-6.04v-66.23h28.92v66.23c0,12.16,3.23,21.88,9.62,28.91,6.71,7.36,16.11,11.1,27.97,11.1,5.37,0,11.01-.76,16.74-2.27,5.85-1.55,11.06-3.73,15.47-6.47,9-5.53,10.89-12.02,10.89-16.51,0-1.4-.2-2.79-.59-4.14ZM238.9,103.96l16.94,1.27v62.61l-2.18-4.47-10.66,4.85c-.57.25-1.55.63-3.06,1v-52.66c0-4.52-.35-8.71-1.04-12.6Zm444.11,92.26c-4.1,2.55-8.95,4.57-14.4,6.01-5.38,1.42-10.66,2.14-15.71,2.14-10.69,0-19.09-3.29-25.01-9.79-5.69-6.27-8.58-15.08-8.58-26.21v-70.24h-36.94v70.24c0,7.39,1.35,9.27,1.39,9.31.21.29,1.36.75,3.59.75,2.07,0,4.41-.35,6.93-1.04,2.9-.79,4.45-1.62,5.26-2.16l5.49-3.81,4.73,4.72c.95.96,1.68,2.1,2.18,3.41l.19.56c.28.98.43,1.99.43,3.03,0,5.02-3.02,9.43-8.98,13.09-4.13,2.56-8.98,4.58-14.4,6.01-5.36,1.42-10.65,2.14-15.71,2.14-10.69,0-19.1-3.3-24.99-9.78-5.7-6.27-8.59-15.08-8.59-26.22v-70.24h-9.46c3.33,6.68,5.01,14.45,5.01,23.28,0,4.41-.37,7.96-1.15,10.87l-1.58,5.96h-61.84c.47,41.06,19.08,41.06,26.13,41.06,9.97,0,17.63-1.92,22.82-5.73l7.72-5.66,4.22,8.6c.37.77.67,1.58.88,2.39v.07s.04.05.04.05c.21.92.33,1.86.33,2.78,0,5.32-3.22,9.99-9.55,13.88l-.04.03-.04.03c-4.33,2.59-9.69,4.72-15.92,6.29-6.13,1.55-12.61,2.34-19.28,2.34-12.21,0-23.06-2.6-32.23-7.73-9.38-5.25-16.59-12.73-21.41-22.2-4.68-9.18-7.04-19.97-7.04-32.07,0-11.48,1.99-22.06,5.93-31.49l-4.13,5.66-6.33-3.98c-3.89-2.44-7.55-3.62-11.17-3.62-2.11,0-8.32,0-14.47,11.54v60.36l10.06,1.16c6.29.71,9.11,5.17,9.11,9.3,0,2.99-1.23,5.86-3.45,8.08l-2.35,2.35h-73.54l3.02-10.27,1.11-3.75,1.44-4.94,5.1-.72,7.01-1v-79.51l-10.22-.76-.51-.04c-.39,1.15-.87,2.24-1.44,3.31-1.26,2.36-2.6,4.53-3.99,6.45l-4.41,6.05-6.33-3.98c-3.89-2.44-7.55-3.62-11.17-3.62-2.11,0-8.32,0-14.47,11.54v60.36l10.06,1.16c6.29.71,9.11,5.17,9.11,9.3,0,2.99-1.23,5.86-3.45,8.08l-2.35,2.35h-73.54l1.95-6.64c-9.24,5.81-17.22,8.63-24.34,8.63-5.2,0-13.21-1.47-18.84-9.31-7.85,6.63-17.05,9.97-27.45,9.97s-19.17-3.19-26.04-9.48c-7.05-6.48-10.63-14.74-10.63-24.54,0-1.2.07-2.46.24-3.78-.65,1.71-1.39,3.38-2.18,4.98-5.16,10.58-12.62,18.81-22.2,24.45-9.43,5.56-20.37,8.38-32.5,8.38-9.56,0-18.96-1.11-27.92-3.31-9.07-2.23-17.34-5.48-24.58-9.66l-5.05-2.93,1.23-5.7,1.8-8.42V36.71l-10.22-.76-7.41-.56v-7.44c0-3.45,1.31-6.52,3.7-8.64,1.71-1.52,4.06-2.59,7.36-3.35h.08c2.87-.65,8.28-1.55,16.54-2.77,8.04-1.18,15.94-2.23,23.48-3.11l8.95-1.06v75.06c.79-.63,1.6-1.23,2.44-1.79,7.64-5.25,16.22-7.91,25.46-7.91s18.03,2.77,25.25,8.24c6.97,5.3,12.33,12.69,15.95,21.99,3.43,8.83,5.17,19.08,5.17,30.46,0,7.85-.8,15.16-2.39,21.88,2.51-4.85,6.87-9.73,14.12-13.77,8.72-4.88,21.92-8.66,40.2-11.52v-13.35c0-7.59-.33-13.45-.99-17.41-.65-3.89-1.64-5.05-1.84-5.25-.28-.28-1.26-.63-3.03-.63-3.65,0-5,1.2-6,3.15-1.11,2.15-2.97,7.89-2.97,22.12v8.02h-13.75c-6.41,0-11.69-1.63-15.7-4.85-4.49-3.58-6.87-8.64-6.87-14.63,0-6.85,3.13-13.24,9.27-18.97,5.28-4.94,11.9-8.82,19.7-11.53,7.57-2.63,15.58-3.97,23.79-3.97,13.13,0,23.22,3.67,29.99,10.91,6.63,7.09,9.98,17.62,9.98,31.26v55.99c0,.48.01.89.04,1.23.23.01.48.01.76.01.48,0,1.6-.07,3.69-.56,1.68-.39,3.11-.85,4.23-1.36l7.11-3.23,3.42,7.01c.37.77.68,1.58.88,2.39v.05s.03.05.03.05c.23.92.35,1.86.35,2.78,0,.2,0,.4-.01.6l3.42-.49v-79.51l-10.22-.76-7.41-.56v-7.44c0-4.45,1.96-7.11,3.62-8.56,1.56-1.36,3.66-2.36,7.04-3.33l.15-.04.16-.04c6.43-1.56,19.14-3.43,38.89-5.69l8.02-.91.87,8c.16,1.46.31,2.93.44,4.38,2.74-2.89,5.6-5.29,8.54-7.17,5.18-3.33,10.46-5.01,15.68-5.01,5.52,0,10.38,1.8,14.07,5.24,1.1,1.03,2.06,2.16,2.85,3.38,1.35-.8,3.06-1.48,5.37-2.14l.15-.04.16-.04c6.43-1.56,19.14-3.43,38.89-5.69l8.02-.91.87,8c.16,1.46.31,2.93.44,4.38,2.74-2.89,5.6-5.29,8.54-7.17,5.18-3.33,10.46-5.01,15.68-5.01,5.52,0,10.38,1.8,14.07,5.24,3.82,3.58,5.85,8.35,5.85,13.8v.24l-.03.23c-.11,1.88-.41,3.71-.92,5.45,4.57-6.83,10.25-12.36,16.95-16.48,9.11-5.62,19.68-8.47,31.43-8.47,14.32,0,25.93,4.3,34.51,12.78.72.71,1.4,1.44,2.04,2.19l.52-1.66,1.11-3.53,1.71-5.45,5.72-.16c8.66-.23,11.53-1.51,12.24-1.91l14.03-22.11c1.87-3.02,3.87-5.14,6.06-6.45,2.38-1.43,5.21-2.15,8.44-2.15h8.02v31.01l22.98-.25c8.36-.25,14.27-1.9,17.58-4.89l16.32-25.72c1.87-3.02,3.86-5.13,6.1-6.49,2.36-1.42,5.2-2.12,8.42-2.12h8.02v39.42l18.3-.31h.13c5.57,0,9.78,4.01,9.78,9.34,0,3.41-1.56,6.64-4.78,9.85l-2.34,2.35h-21.09v70.24c0,3.7.33,6.01.67,7.41.35,1.39.68,1.87.68,1.87.2.27,1.23.77,3.63.77,2.06,0,4.4-.35,6.92-1.04,2.91-.79,4.48-1.62,5.28-2.16l5.49-3.81,4.73,4.73c.95.95,1.68,2.08,2.18,3.39l.09.28.09.28c.28.98.43,1.99.43,3.03,0,5.04-3.03,9.44-8.98,13.09ZM145.97,125.23c.49.47,1.03.94,1.58,1.38,4.74,3.81,10.86,5.73,18.21,5.73h5.52c-7.77,2.11-14.09,4.56-19.09,7.35-2.22,1.24-4.25,2.58-6.1,4.03.23-2.82.33-5.7.33-8.64,0-3.38-.15-6.67-.44-9.85Zm37.54,4.27v-9.19c0-14.29,1.92-19.14,2.52-20.29.36-.71.49-.98,2.43-.98h.32c.17.53.4,1.34.6,2.52.61,3.74.94,9.38.94,16.75v9.94c-2.35.4-4.62.81-6.81,1.24Zm11.03,10.25c2.5-.4,5.1-.79,7.8-1.15v-.31l-.64.11c-2.55.41-4.93.86-7.16,1.35Zm7.16-1.35c-2.55.41-4.93.86-7.16,1.35,2.5-.4,5.1-.79,7.8-1.15v-.31l-.64.11Zm0,0c-2.55.41-4.93.86-7.16,1.35,2.5-.4,5.1-.79,7.8-1.15v-.31l-.64.11Zm0,0c-2.55.41-4.93.86-7.16,1.35,2.5-.4,5.1-.79,7.8-1.15v-.31l-.64.11Zm0,0c-2.55.41-4.93.86-7.16,1.35,2.5-.4,5.1-.79,7.8-1.15v-.31l-.64.11Zm0,0c-2.55.41-4.93.86-7.16,1.35,2.5-.4,5.1-.79,7.8-1.15v-.31l-.64.11Zm0,0c-2.55.41-4.93.86-7.16,1.35,2.5-.4,5.1-.79,7.8-1.15v-.31l-.64.11Zm0,0c-2.55.41-4.93.86-7.16,1.35,2.5-.4,5.1-.79,7.8-1.15v-.31l-.64.11Zm0,0c-2.55.41-4.93.86-7.16,1.35,2.5-.4,5.1-.79,7.8-1.15v-.31l-.64.11Zm0,0c-2.55.41-4.93.86-7.16,1.35,2.5-.4,5.1-.79,7.8-1.15v-.31l-.64.11Zm0,0c-2.55.41-4.93.86-7.16,1.35,2.5-.4,5.1-.79,7.8-1.15v-.31l-.64.11Z"/><path d="m699.27,177.87l-.05-.16-.05-.16-.09-.28-.09-.28-.04-.15-.07-.15c-.9-2.36-2.23-4.46-4.01-6.23l-4.73-4.73-4.73-4.74-5.5,3.82-5.49,3.81s-.19.12-.64.31c-.45.19-1.15.43-2.16.71-.64.17-1.23.31-1.76.41-.01-.51-.03-1.07-.03-1.7v-62.23h16.42l2.34-2.36,2.34-2.35c4.72-4.69,7.12-9.91,7.12-15.5,0-9.73-7.81-17.35-17.79-17.35h-.27l-10.15.17V29.46h-16.03c-4.7,0-8.92,1.1-12.53,3.26-3.38,2.06-6.24,5.02-8.78,9.11l-15.55,24.5c-1.32.8-4.54,2.12-11.74,2.35l-14.79.16v-30.91h-16.03c-4.7,0-8.94,1.11-12.57,3.3-3.31,1.98-6.17,4.94-8.72,9.06l-12.46,19.64c-1.32.24-3.59.53-7.23.63l-5.73.16-5.7.16-1.39,4.44c-8.96-5.93-19.88-8.94-32.57-8.94s-25.25,3.25-35.64,9.66c-2.38,1.47-4.64,3.07-6.79,4.85-1.36-2.63-3.17-5.02-5.38-7.11-5.21-4.85-11.96-7.4-19.54-7.4-6.01,0-11.98,1.66-17.78,4.93l-.65-5.98-8,.91-8.02.91c-20.01,2.28-33.05,4.21-39.88,5.86l-.21.05-.08.03h-.08s-.15.05-.15.05h-.04s-.03.03-.03.03c-.32.08-.64.17-.94.27-5.16-4.62-11.77-7.05-19.17-7.05-6.01,0-11.98,1.66-17.78,4.93l-.65-5.98-8,.91-8.02.91c-20.01,2.28-33.05,4.21-39.88,5.86l-.21.05-.08.03h-.08s-.15.05-.15.05h-.04s-.04.03-.04.03c-4.5,1.28-7.63,2.82-10.11,5-2.11,1.86-3.74,4.11-4.81,6.67-1.19-1.78-2.51-3.45-3.95-5-8.35-8.92-20.41-13.45-35.84-13.45-9.11,0-17.99,1.48-26.42,4.41-8.87,3.09-16.46,7.55-22.55,13.25-2.75,2.56-5.04,5.3-6.85,8.19-3.73-6.39-8.42-11.73-14-15.98-8.63-6.55-18.76-9.87-30.1-9.87-6.99,0-13.64,1.28-19.89,3.83V0l-8.95,1.06-8.95,1.06c-7.31.85-15.28,1.91-23.71,3.14-7.91,1.18-13.13,2.03-16.28,2.69h-.04l-.94.2c-4.68,1.08-8.14,2.73-10.89,5.18C2.27,16.98,0,22.18,0,27.95v14.87l7.41.56,7.41.56,2.81.21v129.34l-1.63,7.59-1.23,5.7-1.22,5.69,5.04,2.93,5.05,2.93c7.9,4.56,16.87,8.1,26.69,10.51,9.56,2.35,19.6,3.54,29.83,3.54,13.59,0,25.89-3.19,36.58-9.48,6.25-3.69,11.72-8.32,16.34-13.85,2.18,4.34,5.17,8.28,8.94,11.74,8.4,7.69,18.98,11.6,31.46,11.6,9.71,0,18.6-2.48,26.49-7.39,5.4,4.38,12.21,6.73,19.8,6.73,3.93,0,7.99-.65,12.24-1.99h87.02l2.34-2.35,2.35-2.35c3.74-3.73,5.8-8.62,5.8-13.75,0-7.44-5.08-16-16.23-17.26l-2.94-.35v-51.11c2.24-3.73,4.41-5.62,6.45-5.62s4.34.79,6.91,2.39l6.33,3.98,6.33,3.98,4.41-6.05,4.41-6.05c.57-.79,1.12-1.6,1.67-2.43v61.32h-.13s-5.09.73-5.09.73l-5.12.72-1.46,4.97-1.44,4.94-1.1,3.73-3.03,10.29-3.02,10.27h87.58l2.34-2.35,2.35-2.35c3.74-3.73,5.8-8.62,5.8-13.75,0-7.44-5.08-16-16.23-17.26l-2.94-.35v-51.11c2.24-3.73,4.41-5.62,6.45-5.62s4.34.79,6.91,2.39l3.05,1.91c-1.51,6.68-2.27,13.73-2.27,21.11,0,13.39,2.66,25.41,7.91,35.71,5.56,10.93,13.85,19.52,24.65,25.57,10.39,5.81,22.55,8.75,36.15,8.75,7.32,0,14.45-.87,21.24-2.58,6.97-1.76,13.05-4.18,18.07-7.19l.17-.11.12-.08c4.73-2.93,7.84-6.11,9.85-9.24,1.39,2.46,3.03,4.73,4.9,6.8,7.48,8.23,17.89,12.4,30.93,12.4,5.74,0,11.73-.82,17.75-2.4,6.21-1.63,11.8-3.98,16.59-6.95,4.68-2.89,7.72-6.04,9.65-9.15,1.3,2.19,2.79,4.22,4.49,6.08,7.49,8.24,17.9,12.42,30.94,12.42,5.72,0,11.69-.8,17.75-2.4,6.25-1.66,11.84-3.99,16.59-6.96,10.54-6.45,12.76-14.39,12.76-19.89,0-1.78-.25-3.54-.73-5.25Zm-46.37,26.49c-10.69,0-19.09-3.29-25.01-9.79-5.69-6.27-8.58-15.08-8.58-26.21v-70.24h-36.94v70.24c0,7.39,1.35,9.27,1.39,9.31.21.29,1.36.75,3.59.75,2.07,0,4.41-.35,6.93-1.04,2.9-.79,4.45-1.62,5.26-2.16l5.49-3.81,4.73,4.72c.95.96,1.68,2.1,2.18,3.41l.19.56c.28.98.43,1.99.43,3.03,0,5.02-3.02,9.43-8.98,13.09-4.13,2.56-8.98,4.58-14.4,6.01-5.36,1.42-10.65,2.14-15.71,2.14-10.69,0-19.1-3.3-24.99-9.78-5.7-6.27-8.59-15.08-8.59-26.22v-70.24h-9.46c3.33,6.68,5.01,14.45,5.01,23.28,0,4.41-.37,7.96-1.15,10.87l-1.58,5.96h-61.84c.47,41.06,19.08,41.06,26.13,41.06,9.97,0,17.63-1.92,22.82-5.73l7.72-5.66,4.22,8.6c.37.77.67,1.58.88,2.39v.07s.04.05.04.05c.21.92.33,1.86.33,2.78,0,5.32-3.22,9.99-9.55,13.88l-.04.03-.04.03c-4.33,2.59-9.69,4.72-15.92,6.29-6.13,1.55-12.61,2.34-19.28,2.34-12.21,0-23.06-2.6-32.23-7.73-9.38-5.25-16.59-12.73-21.41-22.2-4.68-9.18-7.04-19.97-7.04-32.07,0-11.48,1.99-22.06,5.93-31.49l-4.13,5.66-6.33-3.98c-3.89-2.44-7.55-3.62-11.17-3.62-2.11,0-8.32,0-14.47,11.54v60.36l10.06,1.16c6.29.71,9.11,5.17,9.11,9.3,0,2.99-1.23,5.86-3.45,8.08l-2.35,2.35h-73.54l3.02-10.27,1.11-3.75,1.44-4.94,5.1-.72,7.01-1v-79.51l-10.22-.76-.51-.04c-.39,1.15-.87,2.24-1.44,3.31-1.26,2.36-2.6,4.53-3.99,6.45l-4.41,6.05-6.33-3.98c-3.89-2.44-7.55-3.62-11.17-3.62-2.11,0-8.32,0-14.47,11.54v60.36l10.06,1.16c6.29.71,9.11,5.17,9.11,9.3,0,2.99-1.23,5.86-3.45,8.08l-2.35,2.35h-73.54l1.95-6.64c-9.24,5.81-17.22,8.63-24.34,8.63-5.2,0-13.21-1.47-18.84-9.31-7.85,6.63-17.05,9.97-27.45,9.97s-19.17-3.19-26.04-9.48c-7.05-6.48-10.63-14.74-10.63-24.54,0-1.2.07-2.46.24-3.78-.65,1.71-1.39,3.38-2.18,4.98-5.16,10.58-12.62,18.81-22.2,24.45-9.43,5.56-20.37,8.38-32.5,8.38-9.56,0-18.96-1.11-27.92-3.31-9.07-2.23-17.34-5.48-24.58-9.66l-5.05-2.93,1.23-5.7,1.8-8.42V36.71l-10.22-.76-7.41-.56v-7.44c0-3.45,1.31-6.52,3.7-8.64,1.71-1.52,4.06-2.59,7.36-3.35h.08c2.87-.65,8.28-1.55,16.54-2.77,8.04-1.18,15.94-2.23,23.48-3.11l8.95-1.06v75.06c.79-.63,1.6-1.23,2.44-1.79,7.64-5.25,16.22-7.91,25.46-7.91s18.03,2.77,25.25,8.24c6.97,5.3,12.33,12.69,15.95,21.99,3.43,8.83,5.17,19.08,5.17,30.46,0,7.85-.8,15.16-2.39,21.88,2.51-4.85,6.87-9.73,14.12-13.77,8.72-4.88,21.92-8.66,40.2-11.52v-13.35c0-7.59-.33-13.45-.99-17.41-.65-3.89-1.64-5.05-1.84-5.25-.28-.28-1.26-.63-3.03-.63-3.65,0-5,1.2-6,3.15-1.11,2.15-2.97,7.89-2.97,22.12v8.02h-13.75c-6.41,0-11.69-1.63-15.7-4.85-4.49-3.58-6.87-8.64-6.87-14.63,0-6.85,3.13-13.24,9.27-18.97,5.28-4.94,11.9-8.82,19.7-11.53,7.57-2.63,15.58-3.97,23.79-3.97,13.13,0,23.22,3.67,29.99,10.91,6.63,7.09,9.98,17.62,9.98,31.26v55.99c0,.48.01.89.04,1.23.23.01.48.01.76.01.48,0,1.6-.07,3.69-.56,1.68-.39,3.11-.85,4.23-1.36l7.11-3.23,3.42,7.01c.37.77.68,1.58.88,2.39v.05s.03.05.03.05c.23.92.35,1.86.35,2.78,0,.2,0,.4-.01.6l3.42-.49v-79.51l-10.22-.76-7.41-.56v-7.44c0-4.45,1.96-7.11,3.62-8.56,1.56-1.36,3.66-2.36,7.04-3.33l.15-.04.16-.04c6.43-1.56,19.14-3.43,38.89-5.69l8.02-.91.87,8c.16,1.46.31,2.93.44,4.38,2.74-2.89,5.6-5.29,8.54-7.17,5.18-3.33,10.46-5.01,15.68-5.01,5.52,0,10.38,1.8,14.07,5.24,1.1,1.03,2.06,2.16,2.85,3.38,1.35-.8,3.06-1.48,5.37-2.14l.15-.04.16-.04c6.43-1.56,19.14-3.43,38.89-5.69l8.02-.91.87,8c.16,1.46.31,2.93.44,4.38,2.74-2.89,5.6-5.29,8.54-7.17,5.18-3.33,10.46-5.01,15.68-5.01,5.52,0,10.38,1.8,14.07,5.24,3.82,3.58,5.85,8.35,5.85,13.8v.24l-.03.23c-.11,1.88-.41,3.71-.92,5.45,4.57-6.83,10.25-12.36,16.95-16.48,9.11-5.62,19.68-8.47,31.43-8.47,14.32,0,25.93,4.3,34.51,12.78.72.71,1.4,1.44,2.04,2.19l.52-1.66,1.11-3.53,1.71-5.45,5.72-.16c8.66-.23,11.53-1.51,12.24-1.91l14.03-22.11c1.87-3.02,3.87-5.14,6.06-6.45,2.38-1.43,5.21-2.15,8.44-2.15h8.02v31.01l22.98-.25c8.36-.25,14.27-1.9,17.58-4.89l16.32-25.72c1.87-3.02,3.86-5.13,6.1-6.49,2.36-1.42,5.2-2.12,8.42-2.12h8.02v39.42l18.3-.31h.13c5.57,0,9.78,4.01,9.78,9.34,0,3.41-1.56,6.64-4.78,9.85l-2.34,2.35h-21.09v70.24c0,3.7.33,6.01.67,7.41.35,1.39.68,1.87.68,1.87.2.27,1.23.77,3.63.77,2.06,0,4.4-.35,6.92-1.04,2.91-.79,4.48-1.62,5.28-2.16l5.49-3.81,4.73,4.73c.95.95,1.68,2.08,2.18,3.39l.09.28.09.28c.28.98.43,1.99.43,3.03,0,5.04-3.03,9.44-8.98,13.09-4.1,2.55-8.95,4.57-14.4,6.01-5.38,1.42-10.66,2.14-15.71,2.14Zm-41.6-98.23v60.18l-.59-.59-4.74-4.72-5.49,3.81-5.41,3.75c-.12.08-.92.53-2.87,1.07-.61.17-1.2.31-1.78.43-.01-.52-.03-1.08-.03-1.71v-62.23h20.91Zm-79.42,40.12v12.28l-1.35-2.75-7.72,5.66-7.72,5.66c-3.73,2.74-9.97,4.18-18.07,4.18-3.05,0-6.83,0-10.11-3.02-2.98-2.74-6.48-8.76-7.63-22.02h52.61Zm-385.91-21.03c.49.47,1.03.94,1.58,1.38,4.74,3.81,10.86,5.73,18.21,5.73h5.52c-7.77,2.11-14.09,4.56-19.09,7.35-2.22,1.24-4.25,2.58-6.1,4.03.23-2.82.33-5.7.33-8.64,0-3.38-.15-6.67-.44-9.85Zm97.57-16.9l5.48.41,2.81.21v50.84l-3.38,1.54-4.5,2.04v-46.82c0-2.86-.13-5.6-.4-8.23Z"/><path d="m529.65,190.56s9.16-11.73,10.5-16.72"/></svg>