<?xml version="1.0" encoding="UTF-8" standalone="no"?>
<svg
   id="uuid-8449f6ad-f3aa-466b-9d8a-833e5f607ec7"
   viewBox="0 0 500 705.95"
   version="1.1"
   sodipodi:docname="BARRETT LOGO_ADJUSTED ICON.svg"
   inkscape:version="1.2.2 (732a01da63, 2022-12-09)"
   xmlns:inkscape="http://www.inkscape.org/namespaces/inkscape"
   xmlns:sodipodi="http://sodipodi.sourceforge.net/DTD/sodipodi-0.dtd"
   xmlns="http://www.w3.org/2000/svg"
   xmlns:svg="http://www.w3.org/2000/svg">
  <defs
     id="defs9" />
  <sodipodi:namedview
     id="namedview7"
     pagecolor="#505050"
     bordercolor="#eeeeee"
     borderopacity="1"
     inkscape:showpageshadow="0"
     inkscape:pageopacity="0"
     inkscape:pagecheckerboard="0"
     inkscape:deskcolor="#505050"
     showgrid="false"
     inkscape:zoom="1.4547772"
     inkscape:cx="140.57135"
     inkscape:cy="352.63131"
     inkscape:window-width="5120"
     inkscape:window-height="1387"
     inkscape:window-x="-8"
     inkscape:window-y="-8"
     inkscape:window-maximized="1"
     inkscape:current-layer="uuid-8449f6ad-f3aa-466b-9d8a-833e5f607ec7" />
  <path
     d="m480.99,338.1c-13.81-35.52-34.59-63.99-61.77-84.68-28.64-21.76-62.3-32.82-100-32.82-23.22,0-45.34,4.26-66.12,12.74V0l-59.5,7.02c-24.29,2.84-50.8,6.35-78.82,10.44-26.24,3.86-43.65,6.75-54.17,8.93h-.09l-3.11.67c-.13.04-.27.09-.4.09l-2.35.53-.22.13c-13.99,3.55-24.6,8.79-33.17,16.39C7.5,56.48,0,73.76,0,92.89v49.42l49.29,3.73,9.32.71v429.93l-5.42,25.22-4.08,18.96-4.04,18.92,16.74,9.73,16.79,9.72c26.24,15.14,56.08,26.91,88.72,34.95,31.79,7.82,65.14,11.77,99.16,11.77,45.12,0,86.01-10.61,121.54-31.53,36.46-21.49,64.79-52.62,84.24-92.54,18.43-37.74,27.75-82.46,27.75-132.9,0-41.16-6.39-78.46-19.01-110.88Zm-214.52,341.21c-31.79,0-63.01-3.69-92.81-11.01-30.15-7.42-57.64-18.21-81.71-32.1l-16.79-9.73,4.09-18.96,5.99-27.98V122.02l-33.97-2.53-24.64-1.86v-24.73c0-11.46,4.35-21.67,12.26-28.73,5.73-5.06,13.54-8.61,24.51-11.15h.13l.09-.04c9.59-2.13,27.58-5.11,55.02-9.15,26.73-3.91,52.98-7.42,78.06-10.35l29.75-3.51v249.51c2.62-2.09,5.33-4.08,8.08-5.95,25.44-17.45,53.91-26.29,84.68-26.29s59.95,9.19,83.88,27.4c23.18,17.63,41.03,42.18,53.06,73.09,11.41,29.35,17.19,63.41,17.19,101.24,0,46.4-8.44,87.17-25.04,121.22-17.14,35.17-42.01,62.52-73.8,81.26-31.39,18.47-67.72,27.84-108.04,27.84Z"
     id="path2"
     style="fill:#000000"
     inkscape:export-filename="path2.png"
     inkscape:export-xdpi="8.703166"
     inkscape:export-ydpi="8.703166" />
  <path
     d="m446.72,448.99c0-34.68-5.13-65.21-15.39-91.58-10.26-26.38-25.04-46.89-44.33-61.54-19.3-14.65-41.89-21.98-67.77-21.98s-48.61,7.21-69.6,21.61c-21.01,14.41-37.62,34.56-49.82,60.45V59.94c-24.91,2.93-50.68,6.35-77.3,10.26-26.63,3.91-44.33,6.85-53.12,8.79-6.35,1.47-10.62,3.18-12.82,5.13-2.2,1.96-3.3,4.89-3.3,8.79l58.61,4.4v485.03l-6.6,30.77c21.98,12.71,46.89,22.47,74.73,29.3,27.84,6.84,56.65,10.26,86.46,10.26,35.65,0,67.15-8.06,94.51-24.18,27.35-16.11,48.47-39.43,63.38-69.96,14.89-30.52,22.35-67.04,22.35-109.54Zm-112.83,148.37c-14.17,27.6-36.63,41.39-67.4,41.39-24.91,0-47.14-7.07-66.67-21.25v-231.52c9.27-24.91,21.61-44.69,37-59.35,15.39-14.65,31.62-21.98,48.72-21.98,46.4,0,69.6,53.98,69.6,161.92,0,59.6-7.09,103.19-21.25,130.78Z"
     id="path4"
     style="fill:#000000" />
</svg>
